<?xml version="1.0" standalone="no"?>
<!DOCTYPE svg PUBLIC "-//W3C//DTD SVG 20010904//EN"
 "http://www.w3.org/TR/2001/REC-SVG-20010904/DTD/svg10.dtd">
<svg version="1.0" xmlns="http://www.w3.org/2000/svg"
 width="999.000000pt" height="999.000000pt" viewBox="0 0 999.000000 999.000000"
 preserveAspectRatio="xMidYMid meet">
<metadata>
Created by potrace 1.14, written by Peter Selinger 2001-2017
</metadata>
<g transform="translate(0.000000,999.000000) scale(0.100000,-0.100000)"
fill="#000000" stroke="none">
<path d="M7855 8713 c-135 -48 -258 -167 -331 -319 -76 -159 -105 -302 -138
-684 -52 -589 -80 -2000 -57 -2820 16 -546 9 -671 -48 -894 -80 -311 -175
-556 -245 -630 -48 -51 -73 -48 -132 18 -67 73 -109 146 -149 259 -47 132 -70
265 -105 612 -57 566 -75 626 -197 661 -249 72 -491 -227 -819 -1014 l-89
-212 -7 44 c-9 62 -26 442 -38 823 -13 422 -27 557 -68 622 -24 40 -74 91
-104 107 -241 126 -700 -571 -964 -1465 -3 -8 -7 -12 -9 -9 -9 9 15 730 31
918 8 102 18 305 21 451 l5 265 -43 38 c-96 83 -199 111 -243 67 -19 -19 -20
-40 -32 -443 -39 -1304 -56 -1824 -60 -1837 -8 -23 -141 -8 -214 25 -107 48
-203 173 -265 347 -47 132 -70 265 -105 612 -57 566 -75 626 -197 661 -249 72
-490 -226 -819 -1014 -89 -211 -89 -212 -95 -169 -10 62 -28 446 -39 824 -16
517 -27 587 -114 681 -65 71 -127 80 -223 32 -148 -74 -362 -372 -535 -745
-104 -223 -258 -636 -258 -690 0 -8 -4 -15 -10 -15 -18 0 5 677 36 1055 7 99
14 268 14 376 l0 197 -48 40 c-26 22 -66 50 -90 62 -62 32 -142 28 -157 -8 -4
-9 -18 -354 -31 -767 -42 -1400 -58 -1827 -75 -2062 l-12 -151 53 -77 c29 -42
63 -83 74 -91 34 -24 95 -36 146 -29 l48 7 7 76 c10 114 43 331 71 467 140
671 357 1271 622 1725 96 163 152 199 180 115 31 -92 36 -236 22 -689 -20
-660 -5 -966 51 -1082 26 -54 82 -93 145 -100 75 -9 93 11 139 148 94 282 175
479 305 743 190 387 379 655 463 655 28 0 55 -57 62 -129 29 -315 72 -579 116
-719 37 -117 114 -269 168 -335 125 -151 308 -226 483 -199 40 6 74 10 75 8 2
-2 -10 -238 -22 -411 l-6 -90 58 -80 c71 -97 117 -122 206 -111 l55 7 7 77
c49 565 291 1404 557 1937 193 385 278 485 316 370 31 -92 36 -236 22 -689
-20 -660 -5 -966 51 -1082 26 -55 86 -96 147 -102 71 -6 92 17 138 153 122
364 268 698 426 975 157 276 275 420 343 420 26 0 53 -59 60 -129 44 -475 98
-722 200 -920 89 -172 216 -283 368 -321 122 -31 254 106 406 419 l65 136 9
-55 c80 -520 137 -802 181 -889 46 -89 151 -178 271 -228 28 -12 88 -27 135
-33 142 -19 234 1 347 78 109 74 173 168 257 376 42 105 43 115 14 172 -38 77
-46 71 -163 -133 -108 -187 -238 -264 -392 -233 -49 10 -65 20 -105 61 -88 90
-124 192 -169 474 -17 104 -35 233 -41 285 -5 52 -28 239 -49 414 -21 176 -39
338 -39 362 0 28 32 138 90 311 343 1016 595 2014 680 2695 77 615 37 1016
-124 1251 -52 76 -141 150 -216 178 -77 30 -190 35 -255 12z m261 -318 c83
-34 124 -194 124 -485 0 -566 -213 -1733 -471 -2585 -62 -204 -152 -480 -159
-488 -11 -12 -25 892 -25 1543 1 689 18 986 76 1335 68 406 177 656 304 695
35 11 107 4 151 -15z"/>
</g>
</svg>
